<svg width="44" height="22" viewBox="0 0 44 22" fill="none" xmlns="http://www.w3.org/2000/svg">
<path d="M2.23877 7.22397C2.23877 5.70397 2.44277 4.57997 2.85077 3.85197C3.26677 3.12397 4.03877 2.75997 5.16677 2.75997C6.03877 2.75997 7.01477 2.85997 8.09477 3.05997V3.76797H7.98677C7.91477 3.75997 7.81877 3.75197 7.69877 3.74397C7.57877 3.73597 7.43877 3.72797 7.27877 3.71997C7.12677 3.71197 6.95877 3.70397 6.77477 3.69597C6.59077 3.68797 6.40677 3.67997 6.22277 3.67197C6.04677 3.66397 5.86277 3.65997 5.67077 3.65997C5.48677 3.65197 5.31877 3.64797 5.16677 3.64797C4.64677 3.64797 4.24277 3.74797 3.95477 3.94797C3.67477 4.13997 3.46677 4.49597 3.33077 5.01597C3.19477 5.52797 3.12677 6.27197 3.12677 7.24797C3.12677 9.63197 3.80677 10.824 5.16677 10.824L8.09477 10.74V11.448C7.15077 11.624 6.17477 11.712 5.16677 11.712C3.21477 11.712 2.23877 10.216 2.23877 7.22397Z" fill="#83A5FF"/>
<path d="M8.93627 11.64V2.23197H9.82427V6.01197C9.84827 6.00397 9.93627 5.95597 10.0883 5.86797C10.2403 5.77197 10.3323 5.71597 10.3643 5.69997C10.4043 5.68397 10.4923 5.63997 10.6283 5.56797C10.7643 5.48797 10.8603 5.43997 10.9163 5.42397C10.9723 5.40797 11.0643 5.37597 11.1923 5.32797C11.3203 5.27997 11.4243 5.24797 11.5043 5.23197C11.5923 5.21597 11.6963 5.19997 11.8163 5.18397C11.9363 5.16797 12.0563 5.15997 12.1763 5.15997C12.7843 5.15997 13.2643 5.35997 13.6163 5.75997C13.9683 6.15997 14.1443 6.63997 14.1443 7.19997V11.64H13.2563V7.19997C13.2563 6.81597 13.1563 6.52797 12.9563 6.33597C12.7643 6.14397 12.5043 6.04797 12.1763 6.04797C11.8723 6.04797 11.5843 6.07997 11.3123 6.14397C11.0403 6.20797 10.8203 6.27597 10.6523 6.34797C10.4923 6.41197 10.2163 6.53997 9.82427 6.73197V11.64H8.93627Z" fill="#83A5FF"/>
<path d="M15.0436 4.23597V3.58797C15.0436 3.38797 15.1396 3.28797 15.3316 3.28797H15.9316C16.1156 3.28797 16.2076 3.38797 16.2076 3.58797V4.23597C16.2076 4.41997 16.1156 4.51197 15.9316 4.51197H15.3316C15.1396 4.51197 15.0436 4.41997 15.0436 4.23597ZM15.1636 11.64V5.26797H16.0516V11.64H15.1636Z" fill="#83A5FF"/>
<path d="M17.2308 9.37197V2.24397H18.1188V9.37197C18.1188 9.85997 18.1748 10.2 18.2868 10.392C18.3988 10.576 18.5708 10.696 18.8028 10.752C19.4588 10.92 19.8148 11.004 19.8708 11.004V11.64H18.8148C17.7588 11.64 17.2308 10.884 17.2308 9.37197Z" fill="#83A5FF"/>
<path d="M20.4085 8.48397C20.4085 8.01997 20.4325 7.61597 20.4805 7.27197C20.5365 6.91997 20.6325 6.57597 20.7685 6.23997C20.9125 5.89597 21.1285 5.63197 21.4165 5.44797C21.7125 5.26397 22.0765 5.17197 22.5085 5.17197C22.8045 5.17197 23.1805 5.21597 23.6365 5.30397C24.0925 5.39197 24.5005 5.50797 24.8605 5.65197V2.21997H25.7365V11.64H25.1005L24.8605 10.932C24.6605 11.076 24.3085 11.244 23.8045 11.436C23.3085 11.62 22.8765 11.712 22.5085 11.712C22.0925 11.712 21.7405 11.616 21.4525 11.424C21.1645 11.232 20.9485 10.972 20.8045 10.644C20.6605 10.308 20.5565 9.96797 20.4925 9.62397C20.4365 9.27197 20.4085 8.89197 20.4085 8.48397ZM21.2965 8.48397C21.2965 10.044 21.7005 10.824 22.5085 10.824C23.1725 10.824 23.9565 10.64 24.8605 10.272V6.37197C24.0605 6.16397 23.2765 6.05997 22.5085 6.05997C22.0925 6.05997 21.7845 6.23197 21.5845 6.57597C21.3925 6.91997 21.2965 7.55597 21.2965 8.48397Z" fill="#83A5FF"/>
<path d="M25.1032 19.7201V10.9361H28.8472C30.1992 10.9361 30.8752 11.8161 30.8752 13.5761C30.8752 15.1121 30.3672 15.9521 29.3512 16.0961L31.1992 19.7201H30.2392L28.3912 16.1321L25.9912 15.9641V19.7201H25.1032ZM25.9912 15.1721H28.8472C28.9912 15.1721 29.1032 15.1681 29.1832 15.1601C29.2632 15.1521 29.3592 15.1241 29.4712 15.0761C29.5912 15.0201 29.6792 14.9401 29.7352 14.8361C29.7992 14.7241 29.8552 14.5641 29.9032 14.3561C29.9512 14.1401 29.9752 13.8801 29.9752 13.5761C29.9752 12.8721 29.8712 12.4081 29.6632 12.1841C29.4552 11.9521 29.1832 11.8361 28.8472 11.8361H25.9912V15.1721Z" fill="#83A5FF"/>
<path d="M31.7965 16.5041C31.7965 15.8001 31.8445 15.2361 31.9405 14.8121C32.0365 14.3801 32.2085 14.0561 32.4565 13.8401C32.7125 13.6161 32.9925 13.4721 33.2965 13.4081C33.6085 13.3361 34.0365 13.3001 34.5805 13.3001C35.0205 13.3001 35.3645 13.3201 35.6125 13.3601C35.8605 13.4001 36.1045 13.4921 36.3445 13.6361C36.5845 13.7801 36.7565 14.0081 36.8605 14.3201C36.9645 14.6321 37.0165 15.0441 37.0165 15.5561C37.0165 16.5321 36.4685 17.0201 35.3725 17.0201H32.6845C32.6845 17.7641 32.7685 18.2641 32.9365 18.5201C33.1045 18.7681 33.4245 18.8921 33.8965 18.8921C33.9525 18.8921 34.0365 18.8921 34.1485 18.8921C34.2605 18.8921 34.3445 18.8921 34.4005 18.8921C35.5205 18.8921 36.3525 18.8521 36.8965 18.7721V19.4441C36.1045 19.6681 35.1045 19.7801 33.8965 19.7801C33.0885 19.7801 32.5365 19.5481 32.2405 19.0841C31.9445 18.6201 31.7965 17.7601 31.7965 16.5041ZM32.6845 16.1441H35.3725C35.8765 16.1441 36.1285 15.9481 36.1285 15.5561C36.1285 14.9401 36.0365 14.5601 35.8525 14.4161C35.6765 14.2641 35.2565 14.1881 34.5925 14.1881C34.3125 14.1881 34.1045 14.1921 33.9685 14.2001C33.8405 14.2081 33.6845 14.2321 33.5005 14.2721C33.3245 14.3041 33.1965 14.3601 33.1165 14.4401C33.0445 14.5201 32.9645 14.6321 32.8765 14.7761C32.7965 14.9201 32.7445 15.1041 32.7205 15.3281C32.6965 15.5521 32.6845 15.8241 32.6845 16.1441Z" fill="#83A5FF"/>
<path d="M37.4412 14.2361V13.5521L38.6052 13.3481V12.1601C38.6052 11.9841 38.6092 11.8361 38.6172 11.7161C38.6252 11.5881 38.6572 11.4281 38.7132 11.2361C38.7692 11.0361 38.8452 10.8761 38.9412 10.7561C39.0372 10.6281 39.1812 10.5201 39.3732 10.4321C39.5732 10.3361 39.8092 10.2881 40.0812 10.2881C40.5772 10.2881 41.1372 10.3841 41.7612 10.5761V11.1641L40.2852 11.1521C40.2772 11.1521 40.2652 11.1521 40.2492 11.1521C40.0732 11.1521 39.9292 11.1761 39.8172 11.2241C39.7132 11.2721 39.6372 11.3481 39.5892 11.4521C39.5492 11.5561 39.5212 11.6561 39.5052 11.7521C39.4972 11.8481 39.4932 11.9841 39.4932 12.1601V13.3481H41.2692V14.2361H39.4932V19.7201H38.6052V14.2361H37.4412Z" fill="#83A5FF"/>
<path d="M10.5078 16.72H20.5078M20.5078 16.72C20.5078 15.72 18.0078 14.22 18.0078 14.22M20.5078 16.72C20.5078 17.72 18.0078 19.22 18.0078 19.22" stroke="#83A5FF" stroke-width="0.7"/>
</svg>
